<?xml version="1.0" encoding="utf-8"?>
<!-- Generator: Adobe Illustrator 25.0.0, SVG Export Plug-In . SVG Version: 6.00 Build 0)  -->
<svg version="1.1" id="Capa_1" xmlns="http://www.w3.org/2000/svg" xmlns:xlink="http://www.w3.org/1999/xlink" x="0px" y="0px"
	 viewBox="0 0 512 512" style="enable-background:new 0 0 512 512;" xml:space="preserve">
<style type="text/css">
	.st0{fill:#FFFFFF;}
</style>
<g>
	<path class="st0" d="M85.3,0h64c47.1,0,85.3,38.2,85.3,85.3v64c0,47.1-38.2,85.3-85.3,85.3h-64C38.2,234.7,0,196.5,0,149.3v-64
		C0,38.2,38.2,0,85.3,0z"/>
	<path class="st0" d="M362.7,0h64C473.8,0,512,38.2,512,85.3v64c0,47.1-38.2,85.3-85.3,85.3h-64c-47.1,0-85.3-38.2-85.3-85.3v-64
		C277.3,38.2,315.5,0,362.7,0z"/>
	<path class="st0" d="M85.3,277.3h64c47.1,0,85.3,38.2,85.3,85.3v64c0,47.1-38.2,85.3-85.3,85.3h-64C38.2,512,0,473.8,0,426.7v-64
		C0,315.5,38.2,277.3,85.3,277.3z"/>
	<path class="st0" d="M362.7,277.3h64c47.1,0,85.3,38.2,85.3,85.3v64c0,47.1-38.2,85.3-85.3,85.3h-64c-47.1,0-85.3-38.2-85.3-85.3
		v-64C277.3,315.5,315.5,277.3,362.7,277.3z"/>
</g>
</svg>
