<?xml version="1.0" encoding="utf-8"?>
<!-- Generator: Adobe Illustrator 25.0.0, SVG Export Plug-In . SVG Version: 6.00 Build 0)  -->
<svg version="1.1" id="Capa_1" xmlns="http://www.w3.org/2000/svg" xmlns:xlink="http://www.w3.org/1999/xlink" x="0px" y="0px"
	 viewBox="0 0 512 512" style="enable-background:new 0 0 512 512;" xml:space="preserve">
<style type="text/css">
	.st0{fill:#FFFFFF;}
</style>
<g>
	<path class="st0" d="M42.7,234.7h234.7c23.6,0,42.7-19.1,42.7-42.7V42.7C320,19.1,300.9,0,277.3,0H42.7C19.1,0,0,19.1,0,42.7V192
		C0,215.6,19.1,234.7,42.7,234.7z"/>
	<path class="st0" d="M504.7,18.8C496.8,7.1,483.5,0,469.3,0h-64c-23.6,0-42.7,19.1-42.7,42.7V192c0,23.6,19.1,42.7,42.7,42.7h64
		c23.6,0,42.7-19.1,42.7-42.7V42.7C512,34.2,509.5,25.9,504.7,18.8z"/>
	<path class="st0" d="M130.5,284.6c-7-4.8-15.3-7.3-23.9-7.3h-64C19.1,277.3,0,296.4,0,320v149.3C0,492.9,19.1,512,42.7,512h64
		c23.6,0,42.7-19.1,42.7-42.7V320C149.3,305.8,142.3,292.6,130.5,284.6z"/>
	<path class="st0" d="M493.2,284.6c-7-4.8-15.3-7.3-23.9-7.3H234.7c-23.6,0-42.7,19.1-42.7,42.7v149.3c0,23.6,19.1,42.7,42.7,42.7
		h234.7c23.6,0,42.7-19.1,42.7-42.7V320C512,305.8,504.9,292.6,493.2,284.6z"/>
</g>
</svg>
