<?xml version="1.0" encoding="utf-8"?>
<!-- Generator: Adobe Illustrator 25.0.0, SVG Export Plug-In . SVG Version: 6.00 Build 0)  -->
<svg version="1.1" id="Layer_1" xmlns="http://www.w3.org/2000/svg" xmlns:xlink="http://www.w3.org/1999/xlink" x="0px" y="0px"
	 viewBox="0 0 786.8 572.3" style="enable-background:new 0 0 786.8 572.3;" xml:space="preserve">
<style type="text/css">
	.st0{fill:#F2F2F2;}
	.st1{fill:#3F3D56;}
	.st2{fill:#E95A09;}
	.st3{fill:#2F2E41;}
	.st4{fill:#FFFFFF;}
	.st5{fill:#FFB6B6;}
	.st6{fill:#E6E6E6;}
	.st7{opacity:0.2;enable-background:new    ;}
</style>
<ellipse class="st0" cx="328.9" cy="73.8" rx="26.7" ry="26.7"/>
<path class="st0" d="M121.9,496.8c-39.7-30.2-58.6-81-46.7-129.5c0.3-1.2,0.6-2.4,0.9-3.6c7.9-28.8,27.3-56.1,55.7-65.3
	c23.8-7.7,49.8-1.8,74.6-4.9c48.7-6,86.5-45.5,113.1-86.8c26.6-41.3,47-87.6,82.4-121.7c58.2-56.3,153.2-68.4,225.5-31.8
	c72.2,36.6,118.2,117.9,116.2,198.9s-50,158.4-119.8,199.5c-25.6,15.1-55.3,25.8-84.8,22c-25.6-3.2-48.9-17-74.3-21.1
	c-40.1-6.4-79.9,11.7-114.5,32.8c-34.6,21.1-68.1,46.2-107.5,56C204.4,550.9,157,523.6,121.9,496.8z"/>
<path class="st1" d="M178.9,54.9c0.9-0.6,1.7-1.1,2.6-1.7c25.1-16.1,52.1-29.2,80.2-38.9l6.5,90.2h41.4V1.2c2.6-0.5,5.2-1.1,7.9-1.5
	v104.9h49.2C423.2,104.5,469,58.8,469,2.3v0c2.6,0.6,5.3,1.2,7.9,1.8v100.4H517l6.2-86c29,11.1,56.5,25.7,81.9,43.5
	c0.4,0.3,0.9,0.6,1.3,0.9c2.2,1.6,4.4,3.1,6.6,4.7v344.2H494.7l2.1-29l11.5-159H276.9l11.5,159l2.1,29H173.6V58.4
	C175.4,57.2,177.1,56.1,178.9,54.9z M476.9,197.7h33.4l6.2-85.3h-39.5V197.7z M317.6,197.7h56V196c0-3.4,2.8-6.2,6.2-6.2
	c0,0,0,0,0,0h24.4c3.4,0,6.2,2.8,6.2,6.2c0,0,0,0,0,0v1.7H469v-85.3H317.6L317.6,197.7z M309.7,197.7v-85.3h-40.9l6.2,85.3H309.7z"
	/>
<path class="st1" d="M786.8,433.9c-8.7,10.3-18.1,20-28.1,29l-730,1c-10-9-19.4-18.7-28.1-29L786.8,433.9z"/>
<path class="st1" d="M291.8,341.2v85.7c0,2.3-1.8,4.1-4.1,4.1H160.7c-2.3,0-4.1-1.8-4.1-4.1v-85.7c0-2.3,1.8-4.1,4.1-4.1h126.9
	C289.9,337.1,291.8,338.9,291.8,341.2z"/>
<path class="st2" d="M288.8,342.3v83.6c0,1.2-1,2.2-2.2,2.2H161.8c-1.2,0-2.2-1-2.2-2.2v-83.6c0-1.2,1-2.2,2.2-2.2h124.8
	C287.8,340.1,288.8,341.1,288.8,342.3z"/>
<path class="st3" d="M294.4,443.6c-0.5,0.6-1.2,0.9-1.9,0.9H156.6c-1.4,0-2.5-1.1-2.5-2.5c0-0.2,0-0.3,0.1-0.5l2.1-10
	c0.2-0.8,0.8-1.5,1.6-1.8c0.3-0.1,0.6-0.2,0.9-0.2h131.7c0.3,0,0.6,0.1,0.9,0.2c0.8,0.3,1.4,1,1.6,1.8l2.1,10
	C295.1,442.3,294.9,443.1,294.4,443.6z"/>
<path class="st1" d="M160.2,433.9h3.2c0.3,0,0.5-0.2,0.5-0.5v-1.5c0-0.3-0.2-0.5-0.5-0.5h-3.2c-0.3,0-0.5,0.2-0.5,0.5v1.5
	C159.7,433.6,159.9,433.9,160.2,433.9z"/>
<path class="st1" d="M168.5,433.9h3.2c0.3,0,0.5-0.2,0.5-0.5v-1.5c0-0.3-0.2-0.5-0.5-0.5h-3.2c-0.3,0-0.5,0.2-0.5,0.5v1.5
	C168,433.6,168.3,433.9,168.5,433.9z"/>
<path class="st1" d="M176.9,433.9h3.2c0.3,0,0.5-0.2,0.5-0.5v-1.5c0-0.3-0.2-0.5-0.5-0.5h-3.2c-0.3,0-0.5,0.2-0.5,0.5v1.5
	C176.4,433.6,176.6,433.9,176.9,433.9z"/>
<path class="st1" d="M185.3,433.9h3.2c0.3,0,0.5-0.2,0.5-0.5v-1.5c0-0.3-0.2-0.5-0.5-0.5h-3.2c-0.3,0-0.5,0.2-0.5,0.5v1.5
	C184.8,433.6,185,433.9,185.3,433.9z"/>
<path class="st1" d="M193.6,433.9h3.2c0.3,0,0.5-0.2,0.5-0.5v-1.5c0-0.3-0.2-0.5-0.5-0.5h-3.2c-0.3,0-0.5,0.2-0.5,0.5v1.5
	C193.2,433.6,193.4,433.9,193.6,433.9z"/>
<path class="st1" d="M202,433.9h3.2c0.3,0,0.5-0.2,0.5-0.5v-1.5c0-0.3-0.2-0.5-0.5-0.5H202c-0.3,0-0.5,0.2-0.5,0.5v1.5
	C201.5,433.6,201.7,433.9,202,433.9z"/>
<path class="st1" d="M210.4,433.9h3.2c0.3,0,0.5-0.2,0.5-0.5v-1.5c0-0.3-0.2-0.5-0.5-0.5h-3.2c-0.3,0-0.5,0.2-0.5,0.5v1.5
	C209.9,433.6,210.1,433.9,210.4,433.9z"/>
<path class="st1" d="M218.8,433.9h3.2c0.3,0,0.5-0.2,0.5-0.5v-1.5c0-0.3-0.2-0.5-0.5-0.5h-3.2c-0.3,0-0.5,0.2-0.5,0.5v1.5
	C218.3,433.6,218.5,433.9,218.8,433.9z"/>
<path class="st1" d="M227.1,433.9h3.2c0.3,0,0.5-0.2,0.5-0.5v-1.5c0-0.3-0.2-0.5-0.5-0.5h-3.2c-0.3,0-0.5,0.2-0.5,0.5v1.5
	C226.6,433.6,226.9,433.9,227.1,433.9z"/>
<path class="st1" d="M235.5,433.9h3.2c0.3,0,0.5-0.2,0.5-0.5v-1.5c0-0.3-0.2-0.5-0.5-0.5h-3.2c-0.3,0-0.5,0.2-0.5,0.5v1.5
	C235,433.6,235.2,433.9,235.5,433.9z"/>
<path class="st1" d="M243.9,433.9h3.2c0.3,0,0.5-0.2,0.5-0.5v-1.5c0-0.3-0.2-0.5-0.5-0.5h-3.2c-0.3,0-0.5,0.2-0.5,0.5v1.5
	C243.4,433.6,243.6,433.9,243.9,433.9z"/>
<path class="st1" d="M252.2,433.9h3.2c0.3,0,0.5-0.2,0.5-0.5v-1.5c0-0.3-0.2-0.5-0.5-0.5h-3.2c-0.3,0-0.5,0.2-0.5,0.5v1.5
	C251.7,433.6,252,433.9,252.2,433.9z"/>
<path class="st1" d="M260.6,433.9h3.2c0.3,0,0.5-0.2,0.5-0.5v-1.5c0-0.3-0.2-0.5-0.5-0.5h-3.2c-0.3,0-0.5,0.2-0.5,0.5v1.5
	C260.1,433.6,260.3,433.9,260.6,433.9z"/>
<path class="st1" d="M269,433.9h3.2c0.3,0,0.5-0.2,0.5-0.5v-1.5c0-0.3-0.2-0.5-0.5-0.5H269c-0.3,0-0.5,0.2-0.5,0.5v1.5
	C268.5,433.6,268.7,433.9,269,433.9z"/>
<path class="st1" d="M277.3,433.9h3.2c0.3,0,0.5-0.2,0.5-0.5v-1.5c0-0.3-0.2-0.5-0.5-0.5h-3.2c-0.3,0-0.5,0.2-0.5,0.5v1.5
	C276.9,433.6,277.1,433.9,277.3,433.9z"/>
<path class="st1" d="M285.7,433.9h3.2c0.3,0,0.5-0.2,0.5-0.5v-1.5c0-0.3-0.2-0.5-0.5-0.5h-3.2c-0.3,0-0.5,0.2-0.5,0.5v1.5
	C285.2,433.6,285.4,433.9,285.7,433.9z"/>
<path class="st1" d="M160.1,438h3.2c0.3,0,0.5-0.2,0.5-0.5V436c0-0.3-0.2-0.5-0.5-0.5h-3.2c-0.3,0-0.5,0.2-0.5,0.5v1.5
	C159.6,437.8,159.8,438,160.1,438z"/>
<path class="st1" d="M168.4,438h3.2c0.3,0,0.5-0.2,0.5-0.5V436c0-0.3-0.2-0.5-0.5-0.5h-3.2c-0.3,0-0.5,0.2-0.5,0.5v1.5
	C167.9,437.8,168.2,438,168.4,438z"/>
<path class="st1" d="M176.8,438h3.2c0.3,0,0.5-0.2,0.5-0.5V436c0-0.3-0.2-0.5-0.5-0.5h-3.2c-0.3,0-0.5,0.2-0.5,0.5v1.5
	C176.3,437.8,176.5,438,176.8,438z"/>
<path class="st1" d="M185.2,438h3.2c0.3,0,0.5-0.2,0.5-0.5V436c0-0.3-0.2-0.5-0.5-0.5h-3.2c-0.3,0-0.5,0.2-0.5,0.5v1.5
	C184.7,437.8,184.9,438,185.2,438z"/>
<path class="st1" d="M193.5,438h3.2c0.3,0,0.5-0.2,0.5-0.5V436c0-0.3-0.2-0.5-0.5-0.5h-3.2c-0.3,0-0.5,0.2-0.5,0.5v1.5
	C193.1,437.8,193.3,438,193.5,438z"/>
<path class="st1" d="M201.9,438h3.2c0.3,0,0.5-0.2,0.5-0.5V436c0-0.3-0.2-0.5-0.5-0.5h-3.2c-0.3,0-0.5,0.2-0.5,0.5v1.5
	C201.4,437.8,201.6,438,201.9,438z"/>
<path class="st1" d="M210.3,438h3.2c0.3,0,0.5-0.2,0.5-0.5V436c0-0.3-0.2-0.5-0.5-0.5h-3.2c-0.3,0-0.5,0.2-0.5,0.5v1.5
	C209.8,437.8,210,438,210.3,438z"/>
<path class="st1" d="M218.7,438h3.2c0.3,0,0.5-0.2,0.5-0.5V436c0-0.3-0.2-0.5-0.5-0.5h-3.2c-0.3,0-0.5,0.2-0.5,0.5v1.5
	C218.2,437.8,218.4,438,218.7,438z"/>
<path class="st1" d="M227,438h3.2c0.3,0,0.5-0.2,0.5-0.5V436c0-0.3-0.2-0.5-0.5-0.5H227c-0.3,0-0.5,0.2-0.5,0.5v1.5
	C226.5,437.8,226.8,438,227,438z"/>
<path class="st1" d="M235.4,438h3.2c0.3,0,0.5-0.2,0.5-0.5V436c0-0.3-0.2-0.5-0.5-0.5h-3.2c-0.3,0-0.5,0.2-0.5,0.5v1.5
	C234.9,437.8,235.1,438,235.4,438z"/>
<path class="st1" d="M243.8,438h3.2c0.3,0,0.5-0.2,0.5-0.5V436c0-0.3-0.2-0.5-0.5-0.5h-3.2c-0.3,0-0.5,0.2-0.5,0.5v1.5
	C243.3,437.8,243.5,438,243.8,438z"/>
<path class="st1" d="M252.1,438h3.2c0.3,0,0.5-0.2,0.5-0.5V436c0-0.3-0.2-0.5-0.5-0.5h-3.2c-0.3,0-0.5,0.2-0.5,0.5v1.5
	C251.6,437.8,251.9,438,252.1,438z"/>
<path class="st1" d="M260.5,438h3.2c0.3,0,0.5-0.2,0.5-0.5V436c0-0.3-0.2-0.5-0.5-0.5h-3.2c-0.3,0-0.5,0.2-0.5,0.5v1.5
	C260,437.8,260.2,438,260.5,438z"/>
<path class="st1" d="M268.9,438h3.2c0.3,0,0.5-0.2,0.5-0.5V436c0-0.3-0.2-0.5-0.5-0.5h-3.2c-0.3,0-0.5,0.2-0.5,0.5v1.5
	C268.4,437.8,268.6,438,268.9,438z"/>
<path class="st1" d="M277.2,438h3.2c0.3,0,0.5-0.2,0.5-0.5V436c0-0.3-0.2-0.5-0.5-0.5h-3.2c-0.3,0-0.5,0.2-0.5,0.5v1.5
	C276.8,437.8,277,438,277.2,438z"/>
<path class="st1" d="M285.6,438h3.2c0.3,0,0.5-0.2,0.5-0.5V436c0-0.3-0.2-0.5-0.5-0.5h-3.2c-0.3,0-0.5,0.2-0.5,0.5v1.5
	C285.1,437.8,285.3,438,285.6,438z"/>
<path class="st1" d="M200.2,443.1h32.5c0.3,0,0.5-0.2,0.5-0.5V441c0-0.3-0.2-0.5-0.5-0.5h-32.5c-0.3,0-0.5,0.2-0.5,0.5v1.5
	C199.7,442.9,200,443.1,200.2,443.1z"/>
<path class="st4" d="M270,358.4h-2.8c-0.9,0-1.6,0.7-1.6,1.6l0,0c0,0.9,0.7,1.6,1.6,1.6h2.8c0.9,0,1.6-0.7,1.6-1.6l0,0
	C271.6,359.1,270.9,358.4,270,358.4z"/>
<path class="st4" d="M237.5,358.4h-2.8c-0.9,0-1.6,0.7-1.6,1.6l0,0c0,0.9,0.7,1.6,1.6,1.6h2.8c0.9,0,1.6-0.7,1.6-1.6l0,0
	C239.1,359.1,238.4,358.4,237.5,358.4z"/>
<path class="st4" d="M228.3,358.4h-2.8c-0.9,0-1.6,0.7-1.6,1.6l0,0c0,0.9,0.7,1.6,1.6,1.6h2.8c0.9,0,1.6-0.7,1.6-1.6l0,0
	C229.9,359.1,229.2,358.4,228.3,358.4z"/>
<path class="st4" d="M261.2,358.1h-17.7c-0.9,0-1.6,0.7-1.6,1.6l0,0c0,0.9,0.7,1.6,1.6,1.6h17.7c0.9,0,1.6-0.7,1.6-1.6l0,0
	C262.7,358.8,262,358.1,261.2,358.1z"/>
<path class="st4" d="M217.9,358.1h-17.7c-0.9,0-1.6,0.7-1.6,1.6l0,0c0,0.9,0.7,1.6,1.6,1.6h17.7c0.9,0,1.6-0.7,1.6-1.6l0,0
	C219.4,358.8,218.7,358.1,217.9,358.1z"/>
<path class="st4" d="M261.4,365.4h-2.8c-0.9,0-1.6,0.7-1.6,1.6v0c0,0.9,0.7,1.6,1.6,1.6h2.8c0.9,0,1.6-0.7,1.6-1.6v0
	C262.9,366.1,262.2,365.4,261.4,365.4z"/>
<path class="st4" d="M228.9,365.4H226c-0.9,0-1.6,0.7-1.6,1.6v0c0,0.9,0.7,1.6,1.6,1.6h2.8c0.9,0,1.6-0.7,1.6-1.6v0
	C230.4,366.1,229.7,365.4,228.9,365.4z"/>
<path class="st4" d="M219.7,365.4h-2.8c-0.9,0-1.6,0.7-1.6,1.6v0c0,0.9,0.7,1.6,1.6,1.6h2.8c0.9,0,1.6-0.7,1.6-1.6v0
	C221.2,366.1,220.5,365.4,219.7,365.4z"/>
<path class="st4" d="M252.5,365.1h-17.7c-0.9,0-1.6,0.7-1.6,1.6l0,0c0,0.9,0.7,1.6,1.6,1.6h17.7c0.9,0,1.6-0.7,1.6-1.6l0,0
	C254.1,365.8,253.4,365.1,252.5,365.1z"/>
<path class="st4" d="M209.2,365.1h-17.7c-0.9,0-1.6,0.7-1.6,1.6l0,0c0,0.9,0.7,1.6,1.6,1.6h17.7c0.9,0,1.6-0.7,1.6-1.6l0,0
	C210.7,365.8,210.1,365.1,209.2,365.1z"/>
<path class="st4" d="M252.7,372.5h-2.8c-0.9,0-1.6,0.7-1.6,1.6l0,0c0,0.9,0.7,1.6,1.6,1.6h2.8c0.9,0,1.6-0.7,1.6-1.6l0,0
	C254.3,373.2,253.6,372.5,252.7,372.5z"/>
<path class="st4" d="M220.2,372.5h-2.8c-0.9,0-1.6,0.7-1.6,1.6l0,0c0,0.9,0.7,1.6,1.6,1.6h2.8c0.9,0,1.6-0.7,1.6-1.6l0,0
	C221.8,373.2,221.1,372.5,220.2,372.5z"/>
<path class="st4" d="M211,372.5h-2.8c-0.9,0-1.6,0.7-1.6,1.6l0,0c0,0.9,0.7,1.6,1.6,1.6h2.8c0.9,0,1.6-0.7,1.6-1.6l0,0
	C212.5,373.2,211.8,372.5,211,372.5z"/>
<path class="st4" d="M243.9,372.2h-17.7c-0.9,0-1.6,0.7-1.6,1.6v0c0,0.9,0.7,1.6,1.6,1.6h17.7c0.9,0,1.6-0.7,1.6-1.6v0
	C245.4,372.9,244.7,372.2,243.9,372.2z"/>
<path class="st4" d="M200.5,372.2h-17.7c-0.9,0-1.6,0.7-1.6,1.6v0c0,0.9,0.7,1.6,1.6,1.6h17.7c0.9,0,1.6-0.7,1.6-1.6v0
	C202.1,372.9,201.4,372.2,200.5,372.2z"/>
<path class="st4" d="M244,379.5h-2.8c-0.9,0-1.6,0.7-1.6,1.6v0c0,0.9,0.7,1.6,1.6,1.6h2.8c0.9,0,1.6-0.7,1.6-1.6v0
	C245.6,380.2,244.9,379.5,244,379.5z"/>
<path class="st4" d="M211.5,379.5h-2.8c-0.9,0-1.6,0.7-1.6,1.6v0c0,0.9,0.7,1.6,1.6,1.6h2.8c0.9,0,1.6-0.7,1.6-1.6v0
	C213.1,380.2,212.4,379.5,211.5,379.5z"/>
<path class="st4" d="M202.3,379.5h-2.8c-0.9,0-1.6,0.7-1.6,1.6v0c0,0.9,0.7,1.6,1.6,1.6h2.8c0.9,0,1.6-0.7,1.6-1.6v0
	C203.9,380.2,203.2,379.5,202.3,379.5z"/>
<path class="st4" d="M235.2,379.2h-17.7c-0.9,0-1.6,0.7-1.6,1.6l0,0c0,0.9,0.7,1.6,1.6,1.6h17.7c0.9,0,1.6-0.7,1.6-1.6l0,0
	C236.7,379.9,236,379.2,235.2,379.2z"/>
<path class="st4" d="M237.5,407.5h-2.8c-0.9,0-1.6,0.7-1.6,1.6l0,0c0,0.9,0.7,1.6,1.6,1.6h2.8c0.9,0,1.6-0.7,1.6-1.6l0,0
	C239.1,408.2,238.4,407.5,237.5,407.5z"/>
<path class="st4" d="M228.3,407.5h-2.8c-0.9,0-1.6,0.7-1.6,1.6l0,0c0,0.9,0.7,1.6,1.6,1.6h2.8c0.9,0,1.6-0.7,1.6-1.6l0,0
	C229.9,408.2,229.2,407.5,228.3,407.5z"/>
<path class="st4" d="M217.9,407.8h-17.7c-0.9,0-1.6,0.7-1.6,1.6l0,0c0,0.9,0.7,1.6,1.6,1.6h17.7c0.9,0,1.6-0.7,1.6-1.6l0,0
	C219.4,408.5,218.7,407.8,217.9,407.8z"/>
<path class="st4" d="M270,407.5h-2.8c-0.9,0-1.6,0.7-1.6,1.6l0,0c0,0.9,0.7,1.6,1.6,1.6h2.8c0.9,0,1.6-0.7,1.6-1.6l0,0
	C271.6,408.2,270.9,407.5,270,407.5z"/>
<path class="st4" d="M261.2,407.8h-17.7c-0.9,0-1.6,0.7-1.6,1.6l0,0c0,0.9,0.7,1.6,1.6,1.6h17.7c0.9,0,1.6-0.7,1.6-1.6l0,0
	C262.7,408.5,262,407.8,261.2,407.8z"/>
<path class="st4" d="M261.4,400.5h-2.8c-0.9,0-1.6,0.7-1.6,1.6v0c0,0.9,0.7,1.6,1.6,1.6h2.8c0.9,0,1.6-0.7,1.6-1.6v0
	C262.9,401.2,262.2,400.5,261.4,400.5z"/>
<path class="st4" d="M228.9,400.5H226c-0.9,0-1.6,0.7-1.6,1.6v0c0,0.9,0.7,1.6,1.6,1.6h2.8c0.9,0,1.6-0.7,1.6-1.6v0
	C230.4,401.2,229.7,400.5,228.9,400.5z"/>
<path class="st4" d="M219.7,400.5h-2.8c-0.9,0-1.6,0.7-1.6,1.6v0c0,0.9,0.7,1.6,1.6,1.6h2.8c0.9,0,1.6-0.7,1.6-1.6v0
	C221.2,401.2,220.5,400.5,219.7,400.5z"/>
<path class="st4" d="M252.5,400.7h-17.7c-0.9,0-1.6,0.7-1.6,1.6l0,0c0,0.9,0.7,1.6,1.6,1.6h17.7c0.9,0,1.6-0.7,1.6-1.6l0,0
	C254.1,401.4,253.4,400.7,252.5,400.7z"/>
<path class="st4" d="M252.7,393.4h-2.8c-0.9,0-1.6,0.7-1.6,1.6l0,0c0,0.9,0.7,1.6,1.6,1.6h2.8c0.9,0,1.6-0.7,1.6-1.6l0,0
	C254.3,394.1,253.6,393.4,252.7,393.4z"/>
<path class="st4" d="M220.2,393.4h-2.8c-0.9,0-1.6,0.7-1.6,1.6l0,0c0,0.9,0.7,1.6,1.6,1.6h2.8c0.9,0,1.6-0.7,1.6-1.6l0,0
	C221.8,394.1,221.1,393.4,220.2,393.4z"/>
<path class="st4" d="M211,393.4h-2.8c-0.9,0-1.6,0.7-1.6,1.6l0,0c0,0.9,0.7,1.6,1.6,1.6h2.8c0.9,0,1.6-0.7,1.6-1.6l0,0
	C212.5,394.1,211.8,393.4,211,393.4z"/>
<path class="st4" d="M243.9,393.7h-17.7c-0.9,0-1.6,0.7-1.6,1.6v0c0,0.9,0.7,1.6,1.6,1.6h17.7c0.9,0,1.6-0.7,1.6-1.6v0
	C245.4,394.4,244.7,393.7,243.9,393.7z"/>
<path class="st4" d="M244,386.4h-2.8c-0.9,0-1.6,0.7-1.6,1.6v0c0,0.9,0.7,1.6,1.6,1.6h2.8c0.9,0,1.6-0.7,1.6-1.6v0
	C245.6,387.1,244.9,386.4,244,386.4z"/>
<path class="st4" d="M211.5,386.4h-2.8c-0.9,0-1.6,0.7-1.6,1.6v0c0,0.9,0.7,1.6,1.6,1.6h2.8c0.9,0,1.6-0.7,1.6-1.6v0
	C213.1,387.1,212.4,386.4,211.5,386.4z"/>
<path class="st4" d="M202.3,386.4h-2.8c-0.9,0-1.6,0.7-1.6,1.6v0c0,0.9,0.7,1.6,1.6,1.6h2.8c0.9,0,1.6-0.7,1.6-1.6v0
	C203.9,387.1,203.2,386.4,202.3,386.4z"/>
<path class="st4" d="M235.2,386.6h-17.7c-0.9,0-1.6,0.7-1.6,1.6l0,0c0,0.9,0.7,1.6,1.6,1.6h17.7c0.9,0,1.6-0.7,1.6-1.6l0,0
	C236.7,387.3,236,386.6,235.2,386.6z"/>
<path class="st5" d="M282.3,490.1l13.3-21.1l-41.9-33.4l-17.3-19.2c-7.1-7.9-19.2-8.5-27-1.4c-2.5,2.2-4.3,5.1-5.4,8.2l0,0
	c-3.2,9.8,1.9,20.4,11.6,24l27.3,10.1L282.3,490.1z"/>
<path class="st3" d="M595.3,337.1v102.6h-71.8V337.1c0-1.5,1-2.9,2.4-3.3c0.3-0.1,0.7-0.2,1-0.2h64.9
	C593.7,333.6,595.3,335.2,595.3,337.1C595.3,337.1,595.3,337.1,595.3,337.1z M567.3,372.3c0-4.2-3.5-7.6-7.7-7.6
	c-4.2,0-7.6,3.4-7.6,7.6v11.9c0,4.2,3.5,7.7,7.7,7.6c4.2,0,7.6-3.4,7.6-7.6V372.3z"/>
<path class="st1" d="M595.5,436.4v9.9c0,1.1-0.9,1.9-1.9,1.9h-68.4c-1.1,0-1.9-0.9-1.9-1.9v-9.9H595.5z"/>
<path class="st1" d="M708.2,182.6v187.3c0,5-4,9-9,9H421.9c-5,0-9-4-9-9V182.6c0-5,4-9,9-9h277.3
	C704.2,173.6,708.2,177.6,708.2,182.6z"/>
<path class="st4" d="M701.7,184.9v182.6c0,2.7-2.2,4.8-4.8,4.8H424.2c-2.7,0-4.8-2.2-4.8-4.8V184.9c0-2.7,2.2-4.8,4.8-4.8h272.7
	C699.6,180.1,701.7,182.3,701.7,184.9z"/>
<path class="st3" d="M651.1,447.5c-0.6,0.7-1.4,1.1-2.3,1.1H486.6c-1.6,0-3-1.3-3-3c0-0.2,0-0.4,0.1-0.6l2.5-12
	c0.2-1,0.9-1.8,1.9-2.2c0.3-0.1,0.7-0.2,1.1-0.2h157.2c0.4,0,0.7,0.1,1.1,0.2c0.9,0.4,1.6,1.2,1.9,2.2l2.5,12
	C651.9,445.9,651.7,446.8,651.1,447.5z"/>
<path class="st1" d="M433.1,205.3h255.1c0.6,0,1-0.5,1-1c0-0.5-0.4-1-1-1H433.1c-0.6,0-1,0.5-1,1
	C432.1,204.8,432.6,205.2,433.1,205.3z"/>
<ellipse class="st1" cx="670.9" cy="192" rx="5.9" ry="6.1"/>
<ellipse class="st1" cx="650.3" cy="192" rx="5.9" ry="6.1"/>
<ellipse class="st1" cx="629.8" cy="192" rx="5.9" ry="6.1"/>
<path class="st1" d="M445.5,187.4h14.6c0.6,0,1.1,0.5,1.1,1.1c0,0.6-0.5,1.1-1.1,1.1h-14.6c-0.6,0-1.1-0.5-1.1-1.1
	C444.4,187.9,444.9,187.4,445.5,187.4z"/>
<path class="st1" d="M445.5,191.5h14.6c0.6,0,1.1,0.5,1.1,1.1c0,0.6-0.5,1.1-1.1,1.1h-14.6c-0.6,0-1.1-0.5-1.1-1.1
	C444.4,192,444.9,191.5,445.5,191.5z"/>
<path class="st1" d="M445.5,195.7h14.6c0.6,0,1.1,0.5,1.1,1.1c0,0.6-0.5,1.1-1.1,1.1h-14.6c-0.6,0-1.1-0.5-1.1-1.1
	C444.4,196.2,444.9,195.7,445.5,195.7z"/>
<path class="st3" d="M93.8,440.7c-0.9,2.6-3.4,4.4-6.2,4.3l-26.5-0.7c-2.8-0.1-5.2-2-6-4.7l-3.7-40.1c-1.3,0.6-2.8,0.9-4.2,0.9
	c-5.3-0.1-9.5-4.6-9.4-9.9s4.6-9.5,9.9-9.4c0.6,0,1.2,0.1,1.7,0.2c1.3-1.4,3-2.1,4.9-2.1l40.7,1.1c0.3,0,0.7,0.1,1,0.1
	c3.5,0.6,5.7,4,5.1,7.4c-0.1,0.3-0.1,0.6-0.2,0.8L93.8,440.7z M50.6,396.9l-2.7-9.6c-0.3-1.1-0.3-2.3,0-3.4c-0.1,0-0.2-0.1-0.4-0.1
	c-3.8-0.1-7,3-7,6.8c-0.1,3.8,2.9,7,6.7,7.1C48.4,397.8,49.6,397.5,50.6,396.9z"/>
<path class="st1" d="M96,380.4c-0.9,5-10.6,8.5-22.3,7.8c-10.8-0.5-19.6-4.3-21.2-8.8c0.6-0.2,1.2-0.3,1.8-0.2l40.7,1.1
	C95.3,380.3,95.6,380.4,96,380.4z"/>
<path class="st2" d="M71.5,418.7c-0.1,0-0.1,0-0.2-0.1l-5.7-3.8c-0.2-0.2-0.3-0.5-0.1-0.7c0-0.1,0.1-0.1,0.1-0.1l6-3.9
	c0.2-0.2,0.5-0.1,0.7,0.1s0.1,0.5-0.1,0.7l-5.3,3.5l5.1,3.3c0.2,0.2,0.3,0.5,0.1,0.7C71.9,418.7,71.7,418.8,71.5,418.7L71.5,418.7z"
	/>
<path class="st2" d="M80.5,419.1c-0.3-0.1-0.4-0.3-0.4-0.6c0-0.1,0.1-0.2,0.2-0.3l5.3-3l-5.1-3.8c-0.2-0.2-0.3-0.5-0.1-0.7
	c0.2-0.2,0.5-0.3,0.7-0.1l5.7,4.3c0.2,0.2,0.3,0.5,0.1,0.7c0,0.1-0.1,0.1-0.2,0.1l-6,3.4C80.8,419.1,80.7,419.1,80.5,419.1z"/>
<path class="st2" d="M72,422c0,0-0.1,0-0.1-0.1c-0.2-0.1-0.3-0.5-0.2-0.7c0,0,0,0,0,0l8.1-13.4c0.1-0.2,0.5-0.3,0.7-0.2
	s0.3,0.5,0.2,0.7l-8.1,13.4C72.5,422,72.2,422.1,72,422z"/>
<path class="st2" d="M574.3,260.5h-44.2c-1.8,0-3.3,1.5-3.3,3.3v4.3c0,1.8,1.5,3.3,3.3,3.3h44.2c1.8,0,3.3-1.5,3.3-3.3v-4.3
	C577.6,261.9,576.1,260.5,574.3,260.5z"/>
<path class="st6" d="M600.1,282.1h-95.6c-1.8,0-3.3,1.5-3.3,3.3v4.3c0,1.8,1.5,3.3,3.3,3.3h95.6c1.8,0,3.3-1.5,3.3-3.3v-4.3
	C603.3,283.6,601.9,282.1,600.1,282.1z"/>
<path class="st6" d="M600.1,303.8h-95.6c-1.8,0-3.3,1.5-3.3,3.3v4.3c0,1.8,1.5,3.3,3.3,3.3h95.6c1.8,0,3.3-1.5,3.3-3.3v-4.3
	C603.3,305.3,601.9,303.8,600.1,303.8z"/>
<path class="st1" d="M496.3,376.5l-0.2,0.7l0,0l-6.5,19.8l-7.5,22.9l-14.1,43l-0.1,6.7v0l-1,53.7l2.9,7.3l-3.3,11.9
	c0,0,1.5-18,9.6-7.7c4.6,5.9,9.9,11.9,14.3,17.6c-6.4,2.6-12.9,4.9-19.5,7c-1.4,0.5-2.9,0.9-4.3,1.3c-0.3,0.1-0.6,0.2-0.9,0.3
	c-21.9,6.5-44.5,10.1-67.3,10.8c-1.2,0-2.3,0.1-3.5,0.1c-0.4,0-0.8,0-1.2,0c-1.3,0-2.5,0-3.8,0c-2.6,0-5.1,0-7.7-0.1
	c-18.9-0.5-37.7-3.1-56-7.6c0.1-7.6,0.5-16.4,1-25.9c0.2-4.6,5.3-9.7,5.7-14.5c0.2-3.7-4.4-7.1-4.1-10.8c1.6-22.8,3.5-14.1,4.9-30.2
	c0.1-1.6,0.3-3.1,0.4-4.6c0.9-10.4,1.6-16.9,1.6-16.9l-6.1-38.7l-9.6-60.7l0.7-1.2l0.8-0.4l50.8-25.2l2.8-7.1
	c1.6-4.2,5.7-6.9,10.1-6.9l33.5-0.1c3.5,0,6.8,1.7,8.9,4.5l9.1,12.6L496.3,376.5z"/>
<path class="st1" d="M460.3,453.3l7.6,16.2l5.2,11.1l8.9,46.6l4.5,4.7l3.8-16.8l40,8.9c1.3-7.3,0.4,0.2,1.2-7.8
	c-0.2-0.2-0.5-0.5-0.7-0.7c-0.6-0.6-1.2-1.2-1.2-1.7c0.5-27.6-0.9-74.5-12.3-103c-1.8-4.6-4.1-9-7-13.1c-0.2-0.3-0.4-0.6-0.7-0.9
	c-5.3-7.4-8.6-14.6-13.3-19.8v0c0,0-0.1-0.1-0.1-0.1c0,0,0,0,0,0l-32.4-17.2l-1.4,39.1l-1,28.1L460.3,453.3z"/>
<path class="st1" d="M343.4,457.9l-9.5,20.3l-3.3,7.1l-8.9,46.6l-4.4,4.7l-3.8-16.8l-1.8-0.4l-32.4-6.7l-9.5,30
	c-4.4-7.3-3-16.7,3.3-22.5c0.6-0.6,1.2-1.2,1.2-1.7c-0.5-32.4,1.4-91.7,19.4-116.1c5.7-7.7,9.1-15.4,14.1-20.8c0,0,0,0,0,0
	l12.1-19.8l0.7-1.2l0.8-0.4L343.4,457.9z"/>
<ellipse id="a657ec4b-47ce-4d2a-9c58-81a811696ca9" class="st5" cx="400.7" cy="266.8" rx="44.5" ry="44.6"/>
<path class="st3" d="M340.5,235.7c0.7-0.7,1.7-1.2,2.7-1.2l-0.7-1.9c-0.7-1.8,0.2-3.9,2.1-4.5c0.6-0.2,1.3-0.3,1.9-0.2l2.4,0.5
	l-0.2-1.6c-0.3-1.9,1.1-3.7,3-4c0.6-0.1,1.2,0,1.7,0.2c1.1,0.4,2.2,0.3,3.2-0.2c1-0.5,1.7-1.5,1.9-2.6l0.8-4.1l0.1-0.2
	c4.1-6.9,12.1-11.9,21.8-13.8c8.7-1.6,17.5-0.8,26.1,0c3.4,0.3,7.2,0.7,10.4,2.6c2.7,1.7,5,5,4.5,8.4c8.4-2.6,17.5,2.6,22,9.1
	c5.3,7.8,6.2,17.5,6.3,25.1c0.4,18-3.3,32.7-11,43.7c-0.6,0.8-0.7,2.5-1.8,3l0.2-0.4c-1.2,0.6-2.5,1.6-2,2.7
	c1.3,3.1-7.6,9.9-13.9,12.1c-11.5,4.1-26.8,3.8-37.6,2.3l-0.4-2.5c-3.9-0.5-6.6-1.5-7.4-3.1c-1.4-1.2-2.5-2.2-3.5-3.2l0,0
	c0,0-0.1,0-0.1-0.1c-4.9-4.7-6-7.3-6.5-11.4c-0.5-4,0.4-8,1.3-11.6c-18.7,2.9,7.4-20-10.1-24.4c-0.2-0.1-0.4-0.1-0.6-0.1
	c-0.5-0.1-1-0.2-1.5-0.4c-2.4-0.6-4.6-1.6-6.7-2.9c-4.9-3-6.5-6.9-9-11.4C339.3,238.4,339.5,236.8,340.5,235.7z"/>
<path class="st3" d="M243.2,461.1c0,1.8,0,4.2,0.1,7.2c0,0.4,0,0.8,0,1.3c0.1,5.6,0.3,10.2,0.5,15.4c0,0.4,0,0.7,0,1.1
	c0.3,7.2,0.7,15.7,1.5,29c1.4,24.7,3.9,3.4,6.3,12c0.1,0.4,0.2,0.9,0.4,1.5c0.4,2.2,1,4.3,1.9,6.3c1.3,0.8,2.7,1.5,4,2.3
	c3.8,2.1,7.6,4.1,11.5,6.1c2.2,1.1,4.4,2.1,6.6,3.2c0.3,0.2,0.7,0.3,1,0.5c11.3,5.2,22.9,9.6,34.7,13.3c2.3,0.7,4.6,1.4,7,2
	c2.4,0.7,4.9,1.3,7.3,1.9c18.4,4.5,37.1,7.1,56,7.6c2.5,0.1,5.1,0.1,7.7,0.1c1.3,0,2.5,0,3.8,0c0.4,0,0.8,0,1.2,0
	c1.1,0,2.3,0,3.5-0.1c22.8-0.7,45.4-4.4,67.3-10.8l0.9-0.3c1.4-0.4,2.9-0.9,4.3-1.3c6.6-2.1,13.1-4.4,19.5-7c4.9-2,9.7-4.1,14.5-6.3
	c0,0,0.1,0,0.1-0.1c1-0.5,2-0.9,3-1.4c0.1-0.1,0.3-0.1,0.4-0.2c3.7-1.8,7.4-3.7,11.1-5.7c3.1-7.1,7.4-8.4,10.1-14.6
	c0.8-1.8,1.3-3.8,1.7-5.7c0,0,0,0,0-0.1c-0.3,3.7,1.2-6.6,0,0c0-0.1,0-0.2,0-0.4c0-0.4,0.1-0.8,0.1-1.3c3.4-33.5,3.2-71.8,4.7-103.3
	c0.1-2,0.2-4,0.3-5.9c0-0.6,0.1-1.2,0.1-1.8c-0.1-0.2-0.1-0.4-0.2-0.5c0-0.1,0-0.1-0.1-0.2c0-0.1-0.1-0.1-0.1-0.2c0,0,0-0.1-0.1-0.1
	c0,0,0-0.1,0-0.1c-0.1-0.1-0.2-0.3-0.3-0.4c0-0.1-0.1-0.1-0.1-0.2c0-0.1-0.1-0.1-0.1-0.1c0,0-0.1-0.1-0.1-0.1c0,0-0.1-0.1-0.1-0.1
	c0,0,0-0.1-0.1-0.1c-0.1-0.1-0.2-0.2-0.3-0.2c-0.4-0.3-0.7-0.6-1.1-0.9c-0.1-0.1-0.3-0.2-0.4-0.3c-1-0.6-2.1-1.1-3.2-1.5
	c-0.4-0.1-0.8-0.3-1.2-0.4c-0.1,0-0.3-0.1-0.4-0.1c-0.2-0.1-0.4-0.1-0.7-0.2c-1.1-0.3-2.4-0.6-3.7-0.9c-0.2,0-0.3-0.1-0.5-0.1
	c-0.2,0-0.5-0.1-0.7-0.1c-0.3-0.1-0.7-0.1-1-0.2c-3-0.5-6.3-0.8-10.1-1c-0.3,0-0.7,0-1-0.1c-0.4,0-0.8,0-1.2-0.1c-0.3,0-0.7,0-1.1,0
	c-0.3,0-0.7,0-1.1,0c-1,0-2-0.1-3.1-0.1c-3-0.1-6.2,0-9.5,0c-1.5,0-3.1,0.1-4.7,0.2c-0.1,0-0.2,0-0.3,0c-1.4,0-2.8,0.1-4.3,0.2
	c-1,0-2,0.1-3.1,0.2c-1,0.1-1.9,0.1-2.9,0.2c-0.8,0-1.5,0.1-2.3,0.2c-0.7,0-1.3,0.1-2,0.1l-0.9,0.1c-0.5,0-1,0.1-1.5,0.1
	c-1.1,0.1-2.2,0.2-3.3,0.3c-1.1,0.1-2.2,0.2-3.4,0.3c-1.1,0.1-2.3,0.2-3.4,0.3c-0.1,0-0.2,0-0.3,0c-1,0.1-2.1,0.2-3.1,0.3
	c-0.2,0-0.5,0-0.7,0.1c-1,0.1-2,0.2-3,0.3c-0.3,0-0.6,0.1-0.9,0.1c-0.8,0.1-1.6,0.2-2.4,0.3c-1,0.1-2.1,0.2-3.2,0.4
	c-0.8,0.1-1.6,0.2-2.4,0.3c-1.3,0.2-2.6,0.3-3.8,0.5c-0.5,0.1-1,0.1-1.5,0.2c-3.7,0.5-7.4,1-11.2,1.5c-5.7,0.8-11.5,1.7-17.4,2.6
	c-5.9,1-11.8,2-17.7,3c-1.5,0.3-3,0.5-4.5,0.8c-0.7,0.1-1.4,0.3-2,0.4c-1.2,0.2-2.3,0.4-3.5,0.7c-1.2,0.2-2.3,0.4-3.5,0.7
	c-1.4,0.3-2.8,0.5-4.1,0.8c-9.1,1.8-18.1,3.7-26.9,5.7c-1.4,0.3-2.9,0.7-4.3,1c-2.9,0.7-5.7,1.3-8.6,2c-0.8,0.2-1.5,0.4-2.3,0.6
	c-1.9,0.5-3.8,1-5.7,1.5l-0.3,0.1c-1.4,0.3-2.7,0.7-4.1,1c-3.2,0.8-6.4,1.7-9.5,2.5c-2.1,0.6-4.1,1.1-6.1,1.7c-3,0.9-6,1.8-8.8,2.6
	c-0.7,0.2-1.4,0.4-2.1,0.7c-2.1,0.7-4.2,1.3-6.2,2c-1.6,0.5-3.2,1-4.7,1.6c-1.5,0.5-3,1.1-4.5,1.6c-0.9,0.3-1.9,0.7-2.8,1
	c-1.3,0.5-2.7,1-4,1.5c-0.4,0.2-0.8,0.3-1.2,0.5c-0.2,0.1-0.5,0.2-0.7,0.3c-0.5,0.2-0.9,0.4-1.4,0.6c-0.5,0.2-0.9,0.4-1.4,0.6
	c-0.4,0.2-0.9,0.4-1.3,0.6c-0.4,0.2-0.9,0.4-1.3,0.6c-0.4,0.2-0.7,0.3-1.1,0.5c-0.7,0.3-1.4,0.6-2.1,0.9c-0.3,0.2-0.7,0.3-1,0.5
	l-0.8,0.4c-0.1,0.1-0.2,0.1-0.3,0.2c-0.2,0.1-0.5,0.2-0.8,0.4c-0.6,0.3-1.1,0.6-1.7,0.8c-0.7,0.4-1.5,0.8-2.2,1.1
	c-0.7,0.4-1.4,0.8-2.1,1.1c-0.1,0.1-0.2,0.1-0.3,0.2c-0.1,0.1-0.3,0.2-0.4,0.2c-0.5,0.3-1,0.6-1.5,0.9c-1,0.6-1.9,1.2-2.7,1.8
	c-0.2,0.1-0.4,0.3-0.6,0.4c-0.6,0.5-1.2,0.9-1.8,1.3c0,0,0,0,0,0c-0.2,0.1-0.4,0.3-0.5,0.4c-0.1,0.1-0.3,0.3-0.5,0.4
	c-0.5,0.5-1,0.9-1.4,1.3c-0.1,0.1-0.3,0.3-0.4,0.4c-0.1,0-0.1,0.1-0.2,0.2c-0.2,0.2-0.4,0.4-0.5,0.6c0,0,0,0.1-0.1,0.1
	c-0.2,0.3-0.5,0.6-0.7,0.8c-0.1,0.1-0.2,0.3-0.3,0.4c-0.1,0.2-0.2,0.3-0.3,0.5c-0.1,0.1-0.2,0.3-0.2,0.4c-0.2,0.4-0.4,0.7-0.5,1.1
	c-0.1,0.3-0.2,0.5-0.3,0.8C243.3,460.5,243.3,460.8,243.2,461.1z"/>
<path class="st7" d="M243.2,461.1c0,1.8,0,4.2,0.1,7.2c0,0.4,0,0.8,0,1.3c0.1,4.2,0.2,9.5,0.5,15.4c0,0.4,0,0.7,0,1.1
	c0.3,7.2,0.7,15.7,1.5,29c1.4,24.7,3.9,3.4,6.3,12c6.9-4.2,14.4-8.6,22.4-13.2c1.4-0.8,2.9-1.6,4.4-2.5c16.1-9,34-18.4,52.7-27.7
	c0.7-0.4,1.5-0.7,2.2-1.1c42.9-21.2,89.8-41.9,127.7-55.7c7.3-2.7,14.3-5.1,20.9-7.2c13.8-4.4,25.8-7.5,35-8.9
	c9.6-1.4,16.2-0.9,18.9,2c0.1-2,0.2-4,0.3-5.9c0-0.6,0.1-1.2,0.1-1.8c-0.1-0.2-0.1-0.3-0.2-0.5c0,0,0,0,0-0.1c0-0.1,0-0.1-0.1-0.2
	c0-0.1-0.1-0.1-0.1-0.2c0-0.1-0.1-0.1-0.1-0.2c-0.1-0.1-0.2-0.3-0.3-0.4c-0.1-0.1-0.2-0.2-0.3-0.3c0,0-0.1-0.1-0.1-0.1
	c0,0-0.1-0.1-0.1-0.1c0,0,0-0.1-0.1-0.1c-0.1-0.1-0.2-0.2-0.3-0.2c-0.4-0.3-0.7-0.6-1.1-0.9c-0.1-0.1-0.3-0.2-0.4-0.3
	c-1-0.6-2.1-1.1-3.2-1.5c-0.4-0.1-0.8-0.3-1.2-0.4c-0.1,0-0.3-0.1-0.4-0.1c-0.2-0.1-0.4-0.1-0.7-0.2c-1.1-0.3-2.4-0.6-3.7-0.9
	c-0.4-0.1-0.8-0.2-1.2-0.2c-0.3-0.1-0.7-0.1-1-0.2c-3-0.5-6.3-0.8-10.1-1c-0.3,0-0.7,0-1-0.1c-0.4,0-0.8,0-1.2-0.1
	c-0.3,0-0.7,0-1.1,0c-0.3,0-0.7,0-1.1,0c-1,0-2-0.1-3.1-0.1c-3,0-6.2,0-9.5,0c-1.5,0-3.1,0.1-4.7,0.2c-0.1,0-0.2,0-0.3,0
	c-1.4,0-2.8,0.1-4.3,0.2c-1,0-2,0.1-3.1,0.2c-1,0.1-1.9,0.1-2.9,0.2c-0.8,0-1.5,0.1-2.3,0.2c-0.7,0-1.3,0.1-2,0.1
	c-0.8,0.1-1.6,0.1-2.4,0.2c-1.1,0.1-2.2,0.2-3.3,0.3c-1.1,0.1-2.2,0.2-3.4,0.3c-1.1,0.1-2.3,0.2-3.4,0.3c-0.1,0-0.2,0-0.3,0
	c-1,0.1-2.1,0.2-3.1,0.3c-5.8,0.6-11.8,1.3-18,2.1c-3.7,0.5-7.4,1-11.2,1.5c-5.7,0.8-11.5,1.7-17.4,2.6c-5.9,1-11.8,2-17.7,3
	c-1.5,0.3-3,0.5-4.5,0.8c-1.8,0.3-3.7,0.7-5.5,1c-1.2,0.2-2.3,0.4-3.5,0.7c-1.4,0.3-2.8,0.5-4.1,0.8c-9.1,1.8-18.1,3.7-26.9,5.7
	c-1.4,0.3-2.9,0.7-4.3,1c-2.9,0.7-5.7,1.3-8.6,2c-0.8,0.2-1.5,0.4-2.3,0.6c-1.9,0.5-3.8,1-5.7,1.4v0c-0.1,0-0.2,0-0.3,0.1
	c-1.4,0.3-2.7,0.7-4.1,1.1c-3.2,0.8-6.4,1.7-9.5,2.5c-2.1,0.6-4.1,1.2-6.1,1.7c-3,0.9-6,1.8-8.8,2.6c-0.7,0.2-1.4,0.4-2.1,0.7
	c-2.1,0.7-4.2,1.3-6.2,2c-1.6,0.5-3.2,1-4.7,1.6c-1.5,0.5-3,1.1-4.5,1.6c-1,0.3-1.9,0.7-2.8,1c-1.4,0.5-2.7,1-4,1.5
	c-0.4,0.2-0.8,0.3-1.2,0.5c-0.7,0.3-1.4,0.6-2.1,0.9c-0.5,0.2-0.9,0.4-1.4,0.6c-0.4,0.2-0.9,0.4-1.3,0.6c-0.4,0.2-0.9,0.4-1.3,0.6
	c-0.4,0.2-0.7,0.3-1.1,0.5c-0.7,0.3-1.4,0.6-2.1,0.9c-0.3,0.2-0.7,0.3-1,0.5l-0.8,0.4c-0.1,0.1-0.2,0.1-0.3,0.2
	c-0.8,0.4-1.7,0.8-2.5,1.2c-0.7,0.4-1.5,0.8-2.2,1.1c-0.8,0.4-1.6,0.9-2.4,1.3c-0.1,0.1-0.3,0.2-0.4,0.2c-0.5,0.3-1,0.6-1.5,0.9
	c-1,0.6-1.9,1.2-2.7,1.8c-0.8,0.6-1.6,1.2-2.3,1.7c0,0,0,0,0,0c-0.3,0.3-0.7,0.6-1,0.8c-0.5,0.5-1,0.9-1.4,1.3
	c-0.1,0.1-0.3,0.3-0.4,0.4c-0.1,0-0.1,0.1-0.2,0.2c-0.2,0.2-0.4,0.5-0.6,0.7c-0.2,0.3-0.5,0.6-0.7,0.8c-0.1,0.1-0.2,0.3-0.3,0.4
	c-0.1,0.2-0.2,0.3-0.3,0.5c-0.1,0.1-0.2,0.3-0.2,0.4c-0.2,0.4-0.4,0.7-0.5,1.1c-0.1,0.3-0.2,0.5-0.3,0.8
	C243.3,460.5,243.3,460.8,243.2,461.1z"/>
</svg>
